<?xml version="1.0" encoding="utf-8"?>
<svg version="1.1" xmlns:xlink="http://www.w3.org/1999/xlink" width="21px" height="19px" xmlns="http://www.w3.org/2000/svg">
  <g transform="matrix(1 0 0 1 -387 -173 )">
    <path d="M 19.9285714285714 3.79752604166667  C 20.2478991596639 3.92122395833333  20.4957983193277 4.09852430555555  20.672268907563 4.32942708333333  C 21.0084033613445 4.79947916666667  21.0840336134454 5.33138020833333  20.8991596638655 5.92513020833333  L 17.4327731092437 17.1321614583333  C 17.2731092436975 17.6599392361111  16.9516806722689 18.1031901041667  16.468487394958 18.4619140625  C 15.9852941176471 18.8206380208333  15.4705882352941 19  14.9243697478992 19  L 3.28991596638655 19  C 2.64285714285714 19  2.01890756302521 18.7794053819444  1.41806722689076 18.3382161458333  C 0.817226890756303 17.8970269097222  0.399159663865546 17.3548177083333  0.163865546218487 16.7115885416667  C -0.0378151260504202 16.1590711805556  -0.046218487394958 15.6354166666667  0.138655462184874 15.140625  C 0.138655462184874 15.1076388888889  0.151260504201681 14.9963107638889  0.176470588235294 14.806640625  C 0.201680672268908 14.6169704861111  0.218487394957983 14.4644097222222  0.226890756302521 14.3489583333333  C 0.235294117647059 14.2829861111111  0.222689075630252 14.1943359375  0.189075630252101 14.0830078125  C 0.15546218487395 13.9716796875  0.142857142857143 13.8912760416667  0.151260504201681 13.841796875  C 0.168067226890756 13.7510850694444  0.201680672268908 13.6644965277778  0.252100840336134 13.58203125  C 0.302521008403361 13.4995659722222  0.371848739495798 13.4026692708333  0.460084033613445 13.2913411458333  C 0.548319327731092 13.1800130208333  0.617647058823529 13.0831163194444  0.668067226890756 13.0006510416667  C 0.861344537815126 12.6872829861111  1.05042016806723 12.3100043402778  1.23529411764706 11.8688151041667  C 1.42016806722689 11.4276258680556  1.54621848739496 11.0503472222222  1.61344537815126 10.7369791666667  C 1.63865546218487 10.6545138888889  1.64075630252101 10.5308159722222  1.61974789915966 10.3658854166667  C 1.59873949579832 10.2009548611111  1.59663865546218 10.0855034722222  1.61344537815126 10.01953125  C 1.63865546218487 9.92881944444444  1.71008403361345 9.81336805555556  1.82773109243697 9.67317708333333  C 1.9453781512605 9.53298611111111  2.01680672268908 9.43815104166667  2.04201680672269 9.388671875  C 2.21848739495798 9.091796875  2.39495798319328 8.71245659722222  2.57142857142857 8.25065104166667  C 2.74789915966387 7.78884548611111  2.85294117647059 7.41775173611111  2.88655462184874 7.13736979166667  C 2.89495798319328 7.06315104166667  2.88445378151261 6.93120659722222  2.85504201680672 6.74153645833333  C 2.82563025210084 6.55186631944444  2.82773109243698 6.43641493055555  2.86134453781513 6.39518229166667  C 2.89495798319328 6.28797743055555  2.98739495798319 6.16221788194444  3.13865546218487 6.01790364583333  C 3.28991596638655 5.87358940972222  3.38235294117647 5.78081597222222  3.41596638655462 5.73958333333333  C 3.57563025210084 5.52517361111111  3.75420168067227 5.1767578125  3.95168067226891 4.6943359375  C 4.14915966386555 4.2119140625  4.26470588235294 3.81401909722222  4.29831932773109 3.50065104166667  C 4.30672268907563 3.43467881944444  4.29411764705882 3.32953559027778  4.26050420168067 3.18522135416667  C 4.22689075630252 3.04090711805555  4.21848739495798 2.931640625  4.23529411764706 2.857421875  C 4.25210084033613 2.79144965277778  4.28991596638656 2.71723090277778  4.34873949579832 2.634765625  C 4.40756302521008 2.55230034722222  4.48319327731092 2.45746527777778  4.57563025210084 2.35026041666667  C 4.66806722689076 2.24305555555555  4.73949579831933 2.15646701388889  4.78991596638655 2.09049479166667  C 4.85714285714286 1.99153645833333  4.92647058823529 1.86577690972222  4.99789915966387 1.71321614583333  C 5.06932773109244 1.56065538194444  5.13235294117647 1.41634114583333  5.18697478991597 1.2802734375  C 5.24159663865546 1.14420572916667  5.30882352941177 0.995768229166666  5.38865546218487 0.8349609375  C 5.46848739495798 0.674153645833334  5.55042016806723 0.542209201388888  5.6344537815126 0.439127604166666  C 5.71848739495798 0.336046006944442  5.82983193277311 0.239149305555554  5.96848739495798 0.1484375  C 6.10714285714286 0.0577256944444419  6.25840336134454 0.010308159722222  6.42226890756303 0.00618489583333404  C 6.58613445378151 0.00206163194444187  6.78571428571429 0.024739583333334  7.02100840336134 0.07421875  L 7.00840336134454 0.111328125  C 7.32773109243697 0.037109375  7.54201680672269 0  7.65126050420168 0  L 17.2436974789916 0  C 17.8655462184874 0  18.3445378151261 0.230902777777776  18.6806722689076 0.692708333333334  C 19.0168067226891 1.15451388888889  19.0924369747899 1.69053819444444  18.9075630252101 2.30078125  L 15.453781512605 13.5078125  C 15.1512605042017 14.4891493055556  14.8508403361345 15.1220703125  14.5525210084034 15.4065755208333  C 14.2542016806723 15.6910807291667  13.7142857142857 15.8333333333333  12.9327731092437 15.8333333333333  L 1.97899159663866 15.8333333333333  C 1.75210084033613 15.8333333333333  1.59243697478992 15.8951822916667  1.5 16.0188802083333  C 1.40756302521008 16.1508246527778  1.40336134453782 16.328125  1.48739495798319 16.55078125  C 1.6890756302521 17.1280381944444  2.29411764705882 17.4166666666667  3.30252100840336 17.4166666666667  L 14.936974789916 17.4166666666667  C 15.1806722689076 17.4166666666667  15.4159663865546 17.3527560763889  15.6428571428571 17.2249348958333  C 15.8697478991597 17.0971137152778  16.0168067226891 16.9259982638889  16.0840336134454 16.7115885416667  L 19.8655462184874 4.50260416666667  C 19.9243697478992 4.32118055555555  19.9453781512605 4.08615451388889  19.9285714285714 3.79752604166667  Z M 7.52521008403361 3.5625  L 7.26050420168067 4.35416666666667  C 7.22689075630252 4.46137152777778  7.23529411764706 4.55414496527778  7.28571428571429 4.63248697916667  C 7.33613445378151 4.71082899305555  7.42016806722689 4.75  7.53781512605042 4.75  L 15.2016806722689 4.75  C 15.3109243697479 4.75  15.4180672268908 4.71082899305555  15.5231092436975 4.63248697916667  C 15.6281512605042 4.55414496527778  15.6974789915966 4.46137152777778  15.7310924369748 4.35416666666667  L 15.9957983193277 3.5625  C 16.0294117647059 3.45529513888889  16.0210084033613 3.36252170138889  15.9705882352941 3.2841796875  C 15.9201680672269 3.20583767361111  15.8361344537815 3.16666666666667  15.718487394958 3.16666666666667  L 8.0546218487395 3.16666666666667  C 7.9453781512605 3.16666666666667  7.83823529411765 3.20583767361111  7.73319327731092 3.2841796875  C 7.6281512605042 3.36252170138889  7.55882352941177 3.45529513888889  7.52521008403361 3.5625  Z M 6.47899159663866 6.72916666666667  L 6.21428571428571 7.52083333333333  C 6.18067226890756 7.62803819444444  6.1890756302521 7.72081163194444  6.23949579831933 7.79915364583333  C 6.28991596638656 7.87749565972222  6.37394957983193 7.91666666666667  6.49159663865546 7.91666666666667  L 14.1554621848739 7.91666666666667  C 14.2647058823529 7.91666666666667  14.3718487394958 7.87749565972222  14.4768907563025 7.79915364583333  C 14.5819327731092 7.72081163194444  14.6512605042017 7.62803819444444  14.6848739495798 7.52083333333333  L 14.9495798319328 6.72916666666667  C 14.9831932773109 6.62196180555555  14.9747899159664 6.52918836805555  14.9243697478992 6.45084635416667  C 14.8739495798319 6.37250434027778  14.7899159663866 6.33333333333333  14.672268907563 6.33333333333333  L 7.00840336134454 6.33333333333333  C 6.89915966386555 6.33333333333333  6.79201680672269 6.37250434027778  6.68697478991597 6.45084635416667  C 6.58193277310924 6.52918836805555  6.51260504201681 6.62196180555555  6.47899159663866 6.72916666666667  Z " fill-rule="nonzero" fill="#000000" stroke="none" transform="matrix(1 0 0 1 387 173 )" />
  </g>
</svg>